<svg xmlns="http://www.w3.org/2000/svg" xmlns:xlink="http://www.w3.org/1999/xlink" fill="none" version="1.1" width="157" height="48" viewBox="0 0 157 48"><defs><clipPath id="master_svg0_329_5241"><rect x="0" y="0" width="157" height="48" rx="0"/></clipPath></defs><g clip-path="url(#master_svg0_329_5241)"><g><g><path d="M68.74288326416016,15.803613125C68.44718326416016,17.111393125,68.07108326416015,18.399683125,67.61668326416016,19.661153125C67.61668326416016,19.661153125,70.26338326416015,20.505853125,70.26338326416015,20.505853125C71.23318326416016,18.177073125,71.98718326416015,15.764213125000001,72.51598326416016,13.297623125000001C72.51598326416016,13.297623125000001,70.26338326416015,12.678173125,70.26338326416015,12.678173125C70.26338326416015,12.678173125,69.75658326416016,12.790793125,69.75658326416016,12.790793125C69.75658326416016,12.790793125,62.74548326416016,12.790793125,62.74548326416016,12.790793125C62.97068326416016,11.636353125,63.16778326416016,10.481913125,63.308583264160156,9.271153125C63.308583264160156,9.271153125,60.12678326416015,8.876953125,60.12678326416015,8.876953125C59.70448326416016,13.100523124999999,58.77528326416016,17.126993125,56.916883264160155,19.576653125C57.85258326416016,20.127053125,58.738183264160156,20.758253125,59.563683264160154,21.463153124999998C60.708183264160155,19.732753125000002,61.546383264160156,17.818303125,62.041483264160156,15.803603125C62.041483264160156,15.803603125,68.74288326416016,15.803613125,68.74288326416016,15.803613125C68.74288326416016,15.803613125,68.74288326416016,15.803613125,68.74288326416016,15.803613125ZM57.50818326416015,28.755853125C56.690183264160154,27.163853125,55.778133264160154,25.621853125,54.776973264160155,24.138153125000002C56.323783264160156,20.401653125,57.347083264160155,16.469403125,57.817983264160155,12.452903125C57.817983264160155,12.452903125,55.76247326416016,11.748983125,55.76247326416016,11.748983125C55.76247326416016,11.748983125,55.22749326416016,11.861613125,55.22749326416016,11.861613125C55.22749326416016,11.861613125,46.69586926416016,11.861613125,46.69586926416016,11.861613125C46.69586926416016,11.861613125,46.69586926416016,14.818113125,46.69586926416016,14.818113125C46.69586926416016,14.818113125,54.326463264160154,14.818113125,54.326463264160154,14.818113125C53.94098326416015,16.939503125,53.36616326416016,19.022053125,52.60887326416015,21.040853124999998C51.369963264160155,19.295053125000003,50.07473326416016,17.577513125,48.920283264160155,16.057033125C48.920283264160155,16.057033125,46.58324126416016,17.915393125,46.58324126416016,17.915393125C48.019253264160156,19.858253124999997,49.652373264160154,22.167153125,51.08839326416015,24.419653125C49.68052326416016,27.066453125,47.93478326416016,29.234553125,45.963783264160156,30.642453125C46.82260226416015,31.373953125,47.58012326416016,32.216753125,48.216353264160155,33.148453125C50.14751326416015,31.595653125,51.771023264160156,29.695153125,53.00307326416016,27.545153125C53.69046326416016,28.671553125,54.31099326416016,29.837353125,54.86144326416016,31.036653125C54.86144326416016,31.036653125,57.50818326416015,28.755853125,57.50818326416015,28.755853125C57.50818326416015,28.755853125,57.50818326416015,28.755853125,57.50818326416015,28.755853125ZM65.87088326416016,17.155153125C65.87088326416016,17.155153125,62.68918326416016,17.155153125,62.68918326416016,17.155153125C62.68918326416016,17.155153125,62.68918326416016,19.238753125000002,62.68918326416016,19.238753125000002C62.68918326416016,23.039953125,62.09788326416016,28.868553125,55.424583264160155,32.838653125C56.321583264160154,33.510453125,57.118083264160155,34.306853125,57.78978326416016,35.203853124999995C61.42208326416016,32.923153125,63.47758326416016,30.079253125,64.54748326416015,27.263553125C65.87088326416016,30.755053125,67.81378326416015,33.486253125000005,70.91098326416015,35.175753125C71.47138326416015,34.121753125,72.19348326416016,33.162153125,73.05098326416015,32.331853124999995C68.93998326416016,30.445353125,66.88458326416016,26.278053125,65.81458326416015,21.097153125C65.87088326416016,20.477653125,65.87088326416016,19.886353125,65.87088326416016,19.323253125C65.87088326416016,19.323253125,65.87088326416016,17.155153125,65.87088326416016,17.155153125C65.87088326416016,17.155153125,65.87088326416016,17.155153125,65.87088326416016,17.155153125ZM86.59458326416015,23.969153125C86.59458326416015,23.969153125,86.59458326416015,13.353943125,86.59458326416015,13.353943125C88.04008326416016,12.845683125,89.45098326416016,12.243723124999999,90.81818326416015,11.551883125C90.81818326416015,11.551883125,90.81818326416015,30.783253125,90.81818326416015,30.783253125C90.81818326416015,30.783253125,93.85908326416015,30.783253125,93.85908326416015,30.783253125C93.85908326416015,30.783253125,93.85908326416015,13.382093125,93.85908326416015,13.382093125C93.85908326416015,13.382093125,96.84378326416015,13.382093125,96.84378326416015,13.382093125C96.84378326416015,13.382093125,96.84378326416015,24.785753125,96.84378326416015,24.785753125C96.84378326416015,25.123653125,96.73118326416017,25.236253125,96.42138326416016,25.236253125C96.11168326416015,25.236253125,95.15438326416016,25.236253125,94.22518326416017,25.208053125C94.66868326416017,26.097153125,94.98158326416015,27.045453125,95.15438326416016,28.023853125C96.78748326416016,28.023853125,97.97008326416017,27.967453125,98.81478326416016,27.488853125C99.68768326416016,27.010153125,99.94108326416016,26.249953125,99.94108326416016,24.870253124999998C99.94108326416016,24.870253124999998,99.94108326416016,10.566383125,99.94108326416016,10.566383125C99.94108326416016,10.566383125,90.81818326416015,10.566383125,90.81818326416015,10.566383125C90.81818326416015,10.566383125,90.81818326416015,11.045053124999999,90.81818326416015,11.045053124999999C90.81818326416015,11.045053124999999,88.81898326416015,8.905109825,88.81898326416015,8.905109825C87.15358326416015,10.037353125,85.35718326416016,10.963883125,83.46908326416016,11.664513125C83.46908326416016,11.664513125,83.46908326416016,23.265253125,83.46908326416016,23.265253125C83.42098326416016,24.378553125,82.83238326416016,25.398153125,81.89228326416016,25.996453125C82.50698326416016,26.709553125,83.00148326416016,27.517953125,83.35648326416015,28.389853125C84.00408326416016,27.939353125,85.01778326416016,27.516953125,90.45208326416017,26.052853125C90.32078326416016,25.063553125,90.26438326416016,24.065853125,90.28318326416016,23.068153125000002C90.28318326416016,23.068153125000002,86.59458326416015,23.969153125,86.59458326416015,23.969153125C86.59458326416015,23.969153125,86.59458326416015,23.969153125,86.59458326416015,23.969153125ZM82.25838326416016,13.945243125000001C81.16018326416015,12.762643125,78.96398326416016,11.242153125,77.21828326416016,10.228503125C77.21828326416016,10.228503125,75.21908326416016,12.199503125,75.21908326416016,12.199503125C76.93668326416015,13.353943125,79.10478326416015,15.015213124999999,80.06208326416015,16.169653125C80.06208326416015,16.169653125,82.25838326416016,13.945243125000001,82.25838326416016,13.945243125000001C82.25838326416016,13.945243125000001,82.25838326416016,13.945243125000001,82.25838326416016,13.945243125000001ZM81.30108326416016,18.422223125000002C81.30108326416016,18.422223125000002,74.90938326416016,18.422223125000002,74.90938326416016,18.422223125000002C74.90938326416016,18.422223125000002,74.90938326416016,21.519553125,74.90938326416016,21.519553125C74.90938326416016,21.519553125,78.00668326416016,21.519553125,78.00668326416016,21.519553125C78.00668326416016,21.519553125,78.00668326416016,29.459853125,78.00668326416016,29.459853125C76.70988326416015,30.187453125,75.52458326416016,31.097753125,74.48698326416016,32.162953125C74.48698326416016,32.162953125,76.65508326416015,35.175753125,76.65508326416015,35.175753125C77.86588326416016,33.486253125000005,79.21738326416016,31.768753125,80.09028326416015,31.768753125C80.68158326416015,31.768753125,81.63888326416016,32.613453125,82.73708326416016,33.261053125000004C84.67988326416015,34.387353125000004,86.96068326416015,34.725253124999995,90.39578326416016,34.725253124999995C93.35228326416015,34.725253124999995,97.85748326416015,34.584453124999996,99.94108326416016,34.415453125C100.10528326416016,33.235953125,100.41748326416015,32.081753125,100.87028326416015,30.980353125C97.43328326416015,31.415653125,93.97288326416015,31.641353125,90.50848326416016,31.656053125C87.46748326416017,31.656053125,85.01778326416016,31.515253125,83.18758326416015,30.389053125C82.37098326416016,29.910353125,81.80788326416015,29.487953125,81.30108326416016,29.206453125C81.30108326416016,29.206453125,81.30108326416016,18.422223125000002,81.30108326416016,18.422223125000002C81.30108326416016,18.422223125000002,81.30108326416016,18.422223125000002,81.30108326416016,18.422223125000002ZM120.58028326416016,25.855753125C120.58028326416016,25.855753125,110.78158326416016,25.855753125,110.78158326416016,25.855753125C110.78158326416016,25.855753125,110.78158326416016,23.377853125,110.78158326416016,23.377853125C110.78158326416016,23.377853125,120.58028326416016,23.377853125,120.58028326416016,23.377853125C120.58028326416016,23.377853125,120.58028326416016,25.855753125,120.58028326416016,25.855753125C120.58028326416016,25.855753125,120.58028326416016,25.855753125,120.58028326416016,25.855753125ZM112.35838326416015,31.740553125C112.35838326416015,31.740553125,113.76628326416015,31.261853125,113.76628326416015,31.261853125C113.44898326416016,30.287653125,113.00398326416015,29.359753125,112.44288326416016,28.502453125C112.44288326416016,28.502453125,119.28508326416015,28.502453125,119.28508326416015,28.502453125C118.87418326416015,29.615153125,118.38488326416015,30.697153125,117.82088326416016,31.740553125C117.82088326416016,31.740553125,112.35838326416015,31.740553125,112.35838326416015,31.740553125C112.35838326416015,31.740553125,112.35838326416015,31.740553125,112.35838326416015,31.740553125ZM111.11948326416015,19.126153125000002C111.11948326416015,19.126153125000002,120.88998326416015,19.126153125000002,120.88998326416015,19.126153125000002C120.88998326416015,19.126153125000002,120.88998326416015,18.140653125,120.88998326416015,18.140653125C121.80128326416016,19.085353124999997,122.79028326416015,19.951853125,123.84648326416016,20.731153125C123.84648326416016,20.731153125,108.02218326416016,20.731153125,108.02218326416016,20.731153125C109.13808326416016,19.940853125,110.17518326416015,19.045053125000003,111.11948326416015,18.056183125C111.11948326416015,18.056183125,111.11948326416015,19.126153125000002,111.11948326416015,19.126153125000002C111.11948326416015,19.126153125000002,111.11948326416015,19.126153125000002,111.11948326416015,19.126153125000002ZM124.18438326416016,20.956353125C125.15108326416015,21.640253125,126.17838326416016,22.234053125000003,127.25348326416015,22.730253125C127.86168326416016,21.669753125,128.63108326416017,20.710253125,129.53428326416014,19.886353125C127.80488326416015,19.208753125,126.19038326416016,18.268543125,124.74748326416015,17.098843125000002C125.95828326416016,16.225963125,127.36618326416016,15.156003125,128.54878326416014,14.114183125C128.54878326416014,14.114183125,126.09908326416016,12.368443125,126.09908326416016,12.368443125C125.10308326416016,13.460263125,124.00978326416016,14.459263125,122.83288326416016,15.353103125C122.38228326416015,14.874423125,121.95998326416016,14.423913125,121.56578326416016,13.917083125000001C122.77658326416015,13.044213124999999,124.24068326416015,11.946083125,125.47968326416016,10.904263125C125.47968326416016,10.904263125,122.94548326416016,9.102210125,122.94548326416016,9.102210125C122.07648326416016,10.092753125,121.11478326416015,10.997903125,120.07348326416016,11.805293125C119.52228326416015,10.885963125,119.04218326416016,9.925823125,118.63748326416015,8.933273125C118.63748326416015,8.933273125,115.65268326416016,9.834294125,115.65268326416016,9.834294125C116.58708326416016,12.162813125,117.83778326416015,14.351493125000001,119.36958326416016,16.338593125C119.36958326416016,16.338593125,112.61178326416015,16.338593125,112.61178326416015,16.338593125C113.90748326416016,14.679383125000001,114.93368326416015,12.826463125,115.65278326416015,10.847953125C115.65278326416015,10.847953125,113.42838326416016,9.721664125,113.42838326416016,9.721664125C113.42838326416016,9.721664125,112.86518326416015,9.862451125,112.86518326416015,9.862451125C112.86518326416015,9.862451125,104.53068326416016,9.862451125,104.53068326416016,9.862451125C104.53068326416016,9.862451125,104.53068326416016,12.565533125,104.53068326416016,12.565533125C104.53068326416016,12.565533125,111.26028326416015,12.565533125,111.26028326416015,12.565533125C110.66068326416016,13.611233125,109.94258326416016,14.584383124999999,109.12028326416015,15.465713125C108.16648326416015,14.579243125,107.10728326416016,13.813263124999999,105.96668326416015,13.184993125C105.96668326416015,13.184993125,104.16468326416015,15.043363124999999,104.16468326416015,15.043363124999999C105.23488326416015,15.731753125000001,106.23458326416016,16.523983125,107.14928326416015,17.408563125C105.72088326416016,18.656643125000002,104.10568326416015,19.673253125000002,102.36258326416015,20.421353125C103.14048326416015,21.176153125,103.83008326416015,22.016853125,104.41808326416016,22.927353125C105.44638326416015,22.421253125,106.43478326416016,21.837653125,107.37458326416015,21.181653125C107.37458326416015,21.181653125,107.37458326416015,28.502453125,107.37458326416015,28.502453125C107.37458326416015,28.502453125,111.48548326416015,28.502453125,111.48548326416015,28.502453125C111.48548326416015,28.502453125,109.26108326416016,29.206353125,109.26108326416016,29.206353125C109.73188326416016,30.009253125,110.11868326416015,30.858453125,110.41558326416016,31.740553125C110.41558326416016,31.740553125,103.51708326416016,31.740553125,103.51708326416016,31.740553125C103.51708326416016,31.740553125,103.51708326416016,34.584453124999996,103.51708326416016,34.584453124999996C103.51708326416016,34.584453124999996,128.32348326416016,34.584453124999996,128.32348326416016,34.584453124999996C128.32348326416016,34.584453124999996,128.32348326416016,31.740553125,128.32348326416016,31.740553125C128.32348326416016,31.740553125,121.17158326416016,31.740553125,121.17158326416016,31.740553125C121.59388326416016,30.952153125,122.07258326416016,30.051153125,122.52308326416015,29.093753125C122.52308326416015,29.093753125,119.73558326416016,28.502453125,119.73558326416016,28.502453125C119.73558326416016,28.502453125,124.18438326416016,28.502453125,124.18438326416016,28.502453125C124.18438326416016,28.502453125,124.18438326416016,20.956353125,124.18438326416016,20.956353125C124.18438326416016,20.956353125,124.18438326416016,20.956353125,124.18438326416016,20.956353125ZM145.66828326416015,22.195253125C145.66828326416015,22.195253125,152.17278326416016,22.195253125,152.17278326416016,22.195253125C150.82678326416016,23.537753125000002,149.37678326416017,24.771253125,147.83678326416015,25.883853125C146.98878326416016,24.944653125,146.26078326416015,23.904353125,145.66828326416015,22.786553124999998C145.66828326416015,22.786553124999998,145.66828326416015,22.195253125,145.66828326416015,22.195253125C145.66828326416015,22.195253125,145.66828326416015,22.195253125,145.66828326416015,22.195253125ZM152.36978326416016,22.195253125C152.36978326416016,22.195253125,156.45278326416016,22.195253125,156.45278326416016,22.195253125C156.45278326416016,22.195253125,156.45278326416016,19.295053125000003,156.45278326416016,19.295053125000003C156.45278326416016,19.295053125000003,153.01778326416016,19.295053125000003,153.01778326416016,19.295053125000003C153.29878326416014,16.394913125000002,153.49578326416014,13.156843125,153.55278326416015,10.228503125C153.55278326416015,10.228503125,150.84878326416015,10.087713125,150.84878326416015,10.087713125C150.84878326416015,10.087713125,150.22978326416018,10.228503125,150.22978326416018,10.228503125C150.22978326416018,10.228503125,133.44808326416018,10.228503125,133.44808326416018,10.228503125C133.44808326416018,10.228503125,133.44808326416018,13.269473125000001,133.44808326416018,13.269473125000001C133.44808326416018,13.269473125000001,149.77878326416015,13.269473125000001,149.77878326416015,13.269473125000001C149.77878326416015,13.269473125000001,149.72278326416017,14.789953125,149.72278326416017,14.789953125C149.72278326416017,14.789953125,134.37728326416016,14.789953125,134.37728326416016,14.789953125C134.37728326416016,14.789953125,134.37728326416016,17.774613125000002,134.37728326416016,17.774613125000002C134.37728326416016,17.774613125000002,149.55378326416016,17.774613125000002,149.55378326416016,17.774613125000002C149.55378326416016,17.774613125000002,149.46978326416016,19.295053125000003,149.46978326416016,19.295053125000003C149.46978326416016,19.295053125000003,131.75868326416014,19.295053125000003,131.75868326416014,19.295053125000003C131.75868326416014,19.295053125000003,131.75868326416014,22.195253125,131.75868326416014,22.195253125C131.75868326416014,22.195253125,142.23318326416017,22.195253125,142.23318326416017,22.195253125C142.23318326416017,22.195253125,142.23318326416017,26.615953125,142.23318326416017,26.615953125C138.29108326416014,28.164553125,134.15198326416015,29.713253125,131.50528326416014,30.614253125C131.50528326416014,30.614253125,133.33548326416016,33.627053125,133.33548326416016,33.627053125C135.89778326416015,32.557153125,139.10768326416016,31.177453125,142.23318326416017,29.825853125C142.23318326416017,29.825853125,142.23318326416017,31.909453125,142.23318326416017,31.909453125C142.23318326416017,32.303753125,142.06418326416014,32.416353125,141.61368326416016,32.416353125C141.19128326416018,32.444453124999995,139.55818326416016,32.444453124999995,138.23478326416017,32.360053125C138.73308326416014,33.274453125,139.11158326416017,34.249153125,139.36108326416016,35.260153125C141.47288326416015,35.260153125,143.02158326416014,35.203853124999995,144.14778326416015,34.781553125C145.30228326416017,34.331053125,145.66828326416015,33.598953125,145.66828326416015,31.993953125C145.66828326416015,31.993953125,145.66828326416015,27.967453125,145.66828326416015,27.967453125C147.96178326416015,30.848253125,151.05878326416016,32.984253124999995,154.56578326416016,34.105753125C155.19278326416014,33.031853125,155.94978326416015,32.038953125,156.81878326416017,31.149253125C154.34878326416015,30.535553125,152.02978326416016,29.424153125,150.00478326416015,27.883053125C151.77778326416015,26.747153125,153.48878326416016,25.515853125,155.12878326416018,24.194453125000003C155.12878326416018,24.194453125000003,152.36978326416016,22.195253125,152.36978326416016,22.195253125C152.36978326416016,22.195253125,152.36978326416016,22.195253125,152.36978326416016,22.195253125ZM140.74078326416014,25.714953125C139.58638326416016,24.616853125,137.24928326416017,23.237153125,135.53168326416016,22.336053125C135.53168326416016,22.336053125,133.30728326416016,24.363353125,133.30728326416016,24.363353125C135.08118326416016,25.377053125,137.33378326416016,26.897553125,138.34748326416016,27.995653125C138.34748326416016,27.995653125,140.74078326416014,25.714953125,140.74078326416014,25.714953125C140.74078326416014,25.714953125,140.74078326416014,25.714953125,140.74078326416014,25.714953125Z" fill="#333333" fill-opacity="1" style="mix-blend-mode:passthrough"/></g><g><path d="M0.45556640625,32.697679993438726C0.45556640625,32.697679993438726,0.98773640625,25.18917999343872,0.98773640625,25.18917999343872C0.98773640625,25.18917999343872,1.23129640625,19.71913999343872,1.23129640625,19.71913999343872C1.23129640625,19.71913999343872,1.29934240625,17.285429993438722,1.29934240625,17.285429993438722C1.31780240625,16.579629993438722,1.3270314062500002,15.901349993438721,1.3270314062500002,15.25060999343872C1.3270314062500002,15.25060999343872,1.3148294062499999,13.93097299343872,1.3148294062499999,13.93097299343872C2.75397640625,13.94943499343872,3.83208640625,13.958658993438721,4.54915640625,13.958658993438721C5.10885640625,13.958658993438721,6.08152640625,13.94943499343872,7.46717640625,13.93097299343872C7.25004640625,16.56147999343872,7.10926640625,18.88506999343872,7.04481640625,20.90173999343872C7.04481640625,20.90173999343872,14.52996640625,20.90173999343872,14.52996640625,20.90173999343872C14.57526640625,20.14869999343872,14.61846640625,19.131909993438722,14.65946640625,17.851389993438723C14.70046640625,16.57085999343872,14.72096640625,15.696119993438721,14.72096640625,15.22713999343872C14.72096640625,14.979049993438721,14.71166640625,14.54746399343872,14.69326640625,13.93238499343872C14.69326640625,13.93238499343872,17.94726640625,13.96007199343872,17.94726640625,13.96007199343872C18.28606640625,13.96007199343872,19.24716640625,13.950840993438721,20.83056640625,13.93238499343872C20.50326640625,18.64369999343872,20.29416640625,22.14769999343872,20.20316640625,24.444379993438723C20.11206640625,26.74107999343872,20.06676640625,29.492179993438718,20.06706640625,32.697679993438726C20.06706640625,32.697679993438726,17.06686640625,32.669979993438716,17.06686640625,32.669979993438716C16.61726640625,32.669979993438716,15.54386640625,32.67927999343872,13.84666640625,32.697679993438726C14.07596640625,30.51617999343872,14.23236640625,27.97727999343872,14.31596640625,25.08117999343872C14.31596640625,25.08117999343872,6.82472640625,25.08117999343872,6.82472640625,25.08117999343872C6.82472640625,25.08117999343872,6.59383640625,32.697679993438726,6.59383640625,32.697679993438726C6.59383640625,32.697679993438726,3.40268640625,32.669979993438716,3.40268640625,32.669979993438716C2.99753640625,32.669979993438716,2.01515640625,32.67927999343872,0.45556640625,32.697679993438726C0.45556640625,32.697679993438726,0.45556640625,32.697679993438726,0.45556640625,32.697679993438726ZM24.06066640625,16.90060999343872C24.11576640625,15.809999993438721,24.14326640625,14.94838999343872,24.14326640625,14.315788993438721C24.14326640625,14.13245799343872,24.13876640625,13.884986993438721,24.12966640625,13.57337999343872C25.23876640625,13.591835693438721,26.16896640625,13.60106679343872,26.92046640625,13.60106679343872C27.95636640625,13.60106679343872,28.86366640625,13.591835693438721,29.64236640625,13.57337999343872C29.61486640625,13.857455993438721,29.59656640625,14.09569699343872,29.58746640625,14.28810199343872C29.58746640625,14.28810199343872,29.50626640625,15.99113999343872,29.50626640625,15.99113999343872C29.48776640625,16.24767999343872,29.47856640625,16.55021999343872,29.47856640625,16.89873999343872C28.57126640625,16.88027999343872,27.70056640625,16.87104999343872,26.86656640625,16.87104999343872C26.00496640625,16.87229999343872,25.07006640625,16.88215999343872,24.06206640625,16.90060999343872C24.06206640625,16.90060999343872,24.06066640625,16.90060999343872,24.06066640625,16.90060999343872ZM23.19386640625,32.697679993438726C23.32156640625,31.57957999343872,23.41726640625,30.65837999343872,23.48106640625,29.934079993438722C23.54496640625,29.209779993438723,23.60636640625,28.28407999343872,23.66556640625,27.15687999343872C23.72496640625,26.03057999343872,23.77736640625,24.78397999343872,23.82276640625,23.41710999343872C23.86806640625,22.050239993438723,23.90456640625,20.46451999343872,23.93206640625,18.65995999343872C25.12436640625,18.67841999343872,26.07856640625,18.68765999343872,26.79476640625,18.68765999343872C27.44576640625,18.68765999343872,28.38136640625,18.67841999343872,29.60156640625,18.65995999343872C29.44506640625,20.39224999343872,29.33156640625,21.91382999343872,29.26086640625,23.224709993438722C29.19016640625,24.53557999343872,29.14616640625,25.92417999343872,29.12896640625,27.39057999343872C29.09266640625,29.99387999343872,29.07456640625,31.76287999343872,29.07456640625,32.697679993438726C27.98486640625,32.67927999343872,27.04626640625,32.669979993438716,26.25876640625,32.669979993438716C25.48046640625,32.669979993438716,24.45876640625,32.67927999343872,23.19386640625,32.697679993438726C23.19386640625,32.697679993438726,23.19386640625,32.697679993438726,23.19386640625,32.697679993438726ZM34.23576640625,27.32207999343872C35.01136640625,27.293879993438722,35.75146640625,27.64837999343872,36.21566640625,28.27047999343872C36.66486640625,28.92887999343872,36.88766640625,29.71557999343872,36.85016640625,30.511779993438722C36.85016640625,32.76647999343872,35.66766640625,34.58597999343872,33.30276640625,35.970079993438716C33.23496640625,36.01047999343872,33.16036640625,36.038379993438724,33.08266640625,36.052679993438716C33.00696640625,36.04177999343872,32.93816640625,36.00247999343872,32.89026640625,35.94277999343872C32.89026640625,35.94277999343872,32.51906640625,35.51667999343872,32.51906640625,35.51667999343872C32.49196640625,35.46497999343872,32.47346640625,35.40917999343872,32.46416640625,35.351479993438716C32.47726640625,35.265879993438716,32.52766640625,35.19047999343872,32.60166640625,35.14547999343872C33.94786640625,34.219479993438725,34.62106640625,33.288979993438716,34.62106640625,32.35417999343872C34.62106640625,31.83167999343872,34.38726640625,31.57047999343872,33.91996640625,31.57047999343872C33.37266640625,31.58407999343872,32.84806640625,31.35197999343872,32.48996640625,30.93787999343872C32.14826640625,30.54657999343872,31.96666640625,30.040879993438722,31.98126640625,29.52157999343872C31.95966640625,28.882379993438718,32.23346640625,28.26877999343872,32.72366640625,27.85797999343872C33.14536640625,27.50057999343872,33.68316640625,27.30997999343872,34.23576640625,27.32207999343872C34.23576640625,27.32207999343872,34.23576640625,27.32207999343872,34.23576640625,27.32207999343872Z" fill="#333333" fill-opacity="1" style="mix-blend-mode:passthrough"/></g></g></g></svg>