<svg xmlns="http://www.w3.org/2000/svg" xmlns:xlink="http://www.w3.org/1999/xlink" fill="none" version="1.1" width="16" height="16" viewBox="0 0 16 16"><defs><clipPath id="master_svg0_522_4999"><rect x="0" y="0" width="16" height="16" rx="0"/></clipPath></defs><g clip-path="url(#master_svg0_522_4999)"><g><path d="M8.0000440234375,1.33331298828125C11.6818740234375,1.33331298828125,14.6666740234375,4.31815298828125,14.6666740234375,7.99998298828125C14.6666740234375,11.68181298828125,11.6818740234375,14.66661298828125,8.0000440234375,14.66661298828125C4.3182140234375,14.66661298828125,1.3333740234375,11.68181298828125,1.3333740234375,7.99998298828125C1.3333740234375,4.31815298828125,4.3182140234375,1.33331298828125,8.0000440234375,1.33331298828125ZM8.0000440234375,9.83331298828125C7.6316040234375,9.83295298828125,7.3327240234375,10.13153298828125,7.3327240234375,10.49998298828125C7.3327240234375,10.86843298828125,7.6316040234375,11.16701298828125,8.0000440234375,11.16665298828125C8.3682340234375,11.16666298828125,8.6667140234375,10.86818298828125,8.6667140234375,10.49998298828125C8.6667140234375,10.13179298828125,8.3682340234375,9.83331298828125,8.0000440234375,9.83331298828125ZM8.0000440234375,4.16665298828125C7.6318540234375,4.166662988281249,7.3333740234375,4.465132988281249,7.3333740234375,4.83331298828125L7.3333740234375,8.49998298828125C7.3333740234375,8.86817298828125,7.6318540234375,9.16665298828125,8.0000440234375,9.16665298828125C8.3682440234375,9.16665298828125,8.6667140234375,8.86817298828125,8.6667140234375,8.49998298828125L8.6667140234375,4.83331298828125C8.6667140234375,4.46512298828125,8.3682340234375,4.16665298828125,8.0000440234375,4.16665298828125Z" fill="#767676" fill-opacity="1"/></g></g></svg>