<svg xmlns="http://www.w3.org/2000/svg" xmlns:xlink="http://www.w3.org/1999/xlink" fill="none" version="1.1" width="348" height="92" viewBox="0 0 348 92"><g><g><path d="M8.778,22.832L3.738,22.832L3.738,13.97L18.06,13.97L17.22,10.526L22.722,10.274L23.436,13.97L37.548,13.97L37.548,22.874L32.55,22.874L32.55,18.422L8.778,18.422L8.778,22.832ZM29.316,32.534Q30.198,34.256,31.185,35.579Q32.172,36.902,33.39,37.994Q34.608,39.086,36.099,40.052Q37.59,41.018,39.48,42.026L36.414,45.974Q34.44,44.756,32.823,43.496Q31.206,42.236,29.883,40.829Q28.56,39.422,27.489,37.805Q26.418,36.188,25.494,34.256Q25.41,34.34,25.284,34.361Q25.158,34.382,25.074,34.424Q25.41,35.894,25.536,37.427Q25.662,38.96,25.662,40.64Q25.662,42.698,25.368,44.063Q25.074,45.428,24.423,46.247Q23.772,47.066,22.68,47.444Q21.588,47.822,19.992,47.948L16.254,48.242L14.826,43.622L18.27,43.37Q19.446,43.286,19.929,42.572Q20.412,41.858,20.412,39.968L20.412,38.876Q18.774,40.136,16.758,41.354Q14.742,42.572,12.579,43.685Q10.416,44.798,8.19,45.764Q5.964,46.73,3.906,47.486L1.806,43.328Q7.308,41.858,11.76,39.59Q16.212,37.322,19.782,34.424Q19.698,34.214,19.635,33.962Q19.572,33.71,19.488,33.458Q16.464,35.474,12.726,37.196Q8.988,38.918,4.788,40.304L2.898,36.314Q6.972,35.222,10.773,33.626Q14.574,32.03,17.682,29.888L17.094,29.006Q14.28,30.518,11.193,31.778Q8.106,33.038,4.83,33.962L3.024,29.72Q6.72,28.922,10.059,27.704Q13.398,26.486,16.128,24.974L9.366,24.974L9.366,20.648L31.962,20.648L31.962,24.974L23.562,24.974Q22.428,25.814,21.168,26.612Q22.722,28.46,23.646,30.392Q26.292,29.3,28.917,27.893Q31.542,26.486,33.684,24.596L36.33,28.628Q34.86,29.552,33.054,30.56Q31.248,31.568,29.316,32.534ZM73.29,37.028Q74.97,38.918,77.028,40.682Q79.086,42.446,81.606,44.252L78.246,48.83Q75.852,47.066,73.857,45.239Q71.862,43.412,70.182,41.48Q68.502,43.454,66.339,45.26Q64.176,47.066,61.362,48.914L57.75,44.546Q58.506,44.084,59.22,43.643Q59.934,43.202,60.606,42.74Q59.724,42.908,58.233,43.181Q56.742,43.454,54.999,43.811Q53.256,44.168,51.429,44.525Q49.602,44.882,48.006,45.197Q46.41,45.512,45.255,45.764Q44.1,46.016,43.68,46.1L43.008,40.808Q43.26,40.766,43.911,40.661Q44.562,40.556,45.486,40.388L45.486,22.664L50.274,22.874L50.274,39.506L52.29,39.128L52.29,18.506L44.982,18.506L44.982,13.424L61.824,13.424L61.824,18.506L57.12,18.506L57.12,25.94L60.606,25.94L59.346,24.092Q60.354,22.79,61.299,21.152Q62.244,19.514,63.042,17.729Q63.84,15.944,64.47,14.096Q65.1,12.248,65.436,10.526L70.476,11.156Q70.14,12.5,69.783,13.739Q69.426,14.978,69.006,16.196L80.094,16.196L80.094,21.572L77.784,21.572Q77.112,26.402,76.083,30.14Q75.054,33.878,73.29,37.028ZM66.696,21.572Q66.612,21.74,66.57,21.782Q67.032,24.932,67.893,27.578Q68.754,30.224,70.098,32.618Q71.274,30.182,71.883,27.473Q72.492,24.764,72.828,21.572L66.696,21.572ZM61.488,42.152Q64.932,39.716,67.074,37.196Q64.302,32.744,63,27.41Q62.832,27.62,62.664,27.872Q62.496,28.124,62.286,28.334L61.362,26.99L61.362,31.106L57.12,31.106L57.12,38.204Q58.716,37.91,59.85,37.7Q60.984,37.49,61.32,37.406L61.362,39.38L61.488,42.152ZM99.582,41.438L99.582,48.2L94.92,48.2L94.92,42.152Q93.324,42.404,91.707,42.656Q90.09,42.908,88.704,43.118Q87.318,43.328,86.268,43.496Q85.218,43.664,84.798,43.748L84.42,38.75Q84.714,38.708,85.281,38.645Q85.848,38.582,86.646,38.456L86.646,17.12L85.26,17.12L85.26,12.248L101.388,12.248L101.388,17.12L99.582,17.12L99.582,36.524Q100.296,36.398,100.8,36.335Q101.304,36.272,101.598,36.188L101.64,38.33L101.724,41.144L99.582,41.438ZM119.364,32.912L103.362,32.912L103.362,12.626L119.364,12.626L119.364,32.912ZM91.308,17.12L91.308,20.69L94.92,20.69L94.92,17.12L91.308,17.12ZM114.786,17.582L107.94,17.582L107.94,27.998L114.786,27.998L114.786,17.582ZM91.308,29.048L94.92,29.048L94.92,25.436L91.308,25.436L91.308,29.048ZM91.308,37.784Q92.19,37.658,93.114,37.532Q94.038,37.406,94.92,37.238L94.92,33.752L91.308,33.752L91.308,37.784ZM116.13,34.13Q116.844,35.348,117.768,36.923Q118.692,38.498,119.595,40.094Q120.498,41.69,121.317,43.181Q122.136,44.672,122.64,45.68L118.482,48.914Q117.936,47.612,117.159,45.995Q116.382,44.378,115.542,42.74Q114.702,41.102,113.841,39.569Q112.98,38.036,112.308,36.86L116.13,34.13ZM99.834,45.512Q101.724,43.076,103.509,40.052Q105.294,37.028,106.428,34.172L110.544,36.566Q109.956,38.078,109.2,39.716Q108.444,41.354,107.583,42.95Q106.722,44.546,105.798,46.016Q104.874,47.486,103.992,48.704L99.834,45.512ZM162.54,41.69L162.54,46.814L126.882,46.814L126.882,41.69L137.55,41.69L137.55,34.55L133.014,36.398Q132.384,33.962,131.712,31.589Q131.04,29.216,130.326,27.011Q129.612,24.806,128.898,22.811Q128.184,20.816,127.47,19.178L132.72,17.456Q133.896,20.48,135.156,24.134Q136.416,27.788,137.55,31.778L137.55,10.988L142.968,11.24L142.968,41.69L146.412,41.69L146.412,10.988L151.83,11.24L151.83,33.248Q152.586,31.442,153.384,29.195Q154.182,26.948,154.854,24.701Q155.526,22.454,156.072,20.417Q156.618,18.38,156.87,16.994L162.078,18.254Q161.742,19.766,161.133,22.076Q160.524,24.386,159.747,26.927Q158.97,29.468,158.088,31.988Q157.206,34.508,156.366,36.398L151.83,34.676L151.83,41.69L162.54,41.69Z" fill="#1678FF" fill-opacity="1" style="mix-blend-mode:passthrough"/><path d="M189.63,25.772Q188.748,26.528,187.782,27.284Q186.816,28.04,185.808,28.754L201.054,28.754L201.054,32.282L181.818,32.282L181.272,35.012L198.198,35.012Q198.114,35.726,197.967,36.692Q197.82,37.658,197.673,38.75Q197.526,39.842,197.358,40.934Q197.19,42.026,197.022,42.95Q196.812,44.336,196.392,45.281Q195.972,46.226,195.237,46.814Q194.502,47.402,193.389,47.696Q192.276,47.99,190.722,48.116L184.548,48.536L183.372,44.588L188.79,44.21Q189.84,44.126,190.533,44.063Q191.226,44,191.667,43.79Q192.108,43.58,192.381,43.181Q192.654,42.782,192.822,42.026Q192.864,41.774,192.948,41.354Q193.032,40.934,193.116,40.43Q193.2,39.926,193.284,39.422Q193.368,38.918,193.452,38.582L176.316,38.582L177.072,34.214Q175.14,35.306,173.082,36.314Q171.024,37.322,168.756,38.288L167.16,34.046Q171.822,32.282,175.749,30.224Q179.676,28.166,183.036,25.772L167.79,25.772L167.79,22.202L180.474,22.202L180.474,18.17L171.906,18.17L171.906,14.684L180.474,14.684L180.474,10.274L184.842,10.442L184.842,14.684L192.654,14.684L192.654,17.246Q193.956,15.776,195.111,14.222Q196.266,12.668,197.274,11.072L200.676,13.424Q199.164,15.734,197.4,17.918Q195.636,20.102,193.536,22.202L204.036,22.202L204.036,25.772L189.63,25.772ZM187.656,22.202Q189.84,20.27,191.814,18.17L184.842,18.17L184.842,22.202L187.656,22.202ZM216.51,20.48Q216.132,19.766,215.46,18.758Q214.788,17.75,213.99,16.7Q213.192,15.65,212.394,14.663Q211.596,13.676,210.924,13.004L214.116,10.442Q214.746,11.072,215.481,11.954Q216.216,12.836,216.951,13.781Q217.686,14.726,218.379,15.629Q219.072,16.532,219.576,17.288L216.51,20.48ZM245.91,35.138L234.78,35.138L234.78,48.158L230.622,48.158L230.622,35.138L219.828,35.138L219.828,31.022L230.622,31.022L230.622,16.28L221.34,16.28L221.34,12.29L243.978,12.29L243.978,16.28L234.78,16.28L234.78,31.022L245.91,31.022L245.91,35.138ZM236.25,27.368Q236.838,26.444,237.51,25.205Q238.182,23.966,238.812,22.685Q239.442,21.404,239.967,20.186Q240.492,18.968,240.786,18.044L244.062,19.598Q243.768,20.438,243.285,21.614Q242.802,22.79,242.214,24.071Q241.626,25.352,240.996,26.591Q240.366,27.83,239.82,28.754L236.25,27.368ZM224.658,18.296Q225.12,19.052,225.729,20.144Q226.338,21.236,226.968,22.454Q227.598,23.672,228.186,24.89Q228.774,26.108,229.194,27.116L225.834,29.258Q225.498,28.25,224.952,26.99Q224.406,25.73,223.776,24.449Q223.146,23.168,222.495,21.992Q221.844,20.816,221.34,19.976L224.658,18.296ZM221.046,36.692L222.768,40.514Q222.348,40.85,221.445,41.606Q220.542,42.362,219.45,43.286Q218.358,44.21,217.224,45.218Q216.09,46.226,215.208,47.024L212.646,44.084Q213.234,43.496,213.318,42.866Q213.402,42.236,213.402,41.354L213.402,27.2L209.16,27.2L209.16,22.958L217.434,22.958L217.434,39.758L221.046,36.692ZM286.944,35.18L270.774,35.18L270.774,47.78L266.49,47.78L266.49,35.18L250.194,35.18L250.194,30.98L266.49,30.98L266.49,16.238L252.294,16.238L252.294,12.038L284.928,12.038L284.928,16.238L270.774,16.238L270.774,30.98L286.944,30.98L286.944,35.18ZM273.504,27.326Q274.26,26.402,275.205,25.121Q276.15,23.84,277.116,22.475Q278.082,21.11,278.922,19.829Q279.762,18.548,280.266,17.666L283.542,20.018Q282.996,20.9,282.156,22.181Q281.316,23.462,280.35,24.827Q279.384,26.192,278.439,27.515Q277.494,28.838,276.738,29.762L273.504,27.326ZM256.83,17.708Q257.502,18.632,258.405,19.85Q259.308,21.068,260.232,22.37Q261.156,23.672,262.038,24.953Q262.92,26.234,263.592,27.242L260.484,29.846Q259.812,28.796,258.909,27.452Q258.006,26.108,257.061,24.743Q256.116,23.378,255.234,22.139Q254.352,20.9,253.722,20.06L256.83,17.708ZM316.26,13.592Q317.352,14.6,318.801,16.028Q320.25,17.456,321.783,19.01Q323.316,20.564,324.786,22.139Q326.256,23.714,327.39,25.016L324.702,28.124Q324.24,27.62,323.715,27.011Q323.19,26.402,322.602,25.73Q321.426,25.772,319.221,25.835Q317.016,25.898,314.244,25.982Q311.472,26.066,308.406,26.192Q305.34,26.318,302.484,26.444Q299.628,26.57,297.234,26.717Q294.84,26.864,293.412,26.99L292.362,22.622Q293.79,22.37,294.483,22.097Q295.176,21.824,295.806,21.32Q296.814,20.564,298.326,19.157Q299.838,17.75,301.413,16.07Q302.988,14.39,304.437,12.626Q305.886,10.862,306.852,9.434L310.59,11.534Q309.54,12.962,308.238,14.537Q306.936,16.112,305.592,17.582Q304.248,19.052,302.967,20.27Q301.686,21.488,300.762,22.202L318.78,21.614Q317.226,19.976,315.798,18.527Q314.37,17.078,313.362,16.112L316.26,13.592ZM296.058,30.308L323.778,30.308L323.778,48.2L319.494,48.2L319.494,46.394L300.3,46.394L300.3,48.2L296.058,48.2L296.058,30.308ZM300.3,34.382L300.3,42.446L319.494,42.446L319.494,34.382L300.3,34.382Z" fill="#232323" fill-opacity="1" style="mix-blend-mode:passthrough"/></g><g><path d="M18.62,71.68L18.62,72.88L1.14,72.88L1.14,71.68L9.32,71.68Q9.18,71.22,9.03,70.75Q8.88,70.28,8.78,70L10.16,69.76Q10.3,70.1,10.46,70.64Q10.62,71.18,10.78,71.68L18.62,71.68ZM15.48,74.32L15.48,77.98L4.28,77.98L4.28,74.32L15.48,74.32ZM13.98,75.38L5.76,75.38L5.76,76.92L13.98,76.92L13.98,75.38ZM2.44,79.3L17.3,79.3L17.3,85.46000000000001Q17.3,86.12,17.21,86.53Q17.12,86.94,16.88,87.18Q16.64,87.42,16.23,87.53Q15.82,87.64,15.18,87.7L13.72,87.84L13.26,86.46000000000001L14.68,86.34Q15.04,86.32,15.26,86.27Q15.48,86.22,15.6,86.12Q15.72,86.02,15.76,85.83Q15.8,85.64,15.8,85.3L15.8,80.46000000000001L3.92,80.46000000000001L3.92,87.82L2.44,87.82L2.44,79.3ZM13.58,85.58L6.18,85.58L6.18,81.76L13.58,81.76L13.58,85.58ZM12.14,82.88L7.62,82.88L7.62,84.46000000000001L12.14,84.46000000000001L12.14,82.88ZM35.2,71.52L36.74,71.52L31.36,86.6L29.82,86.6L35.2,71.52ZM61.64,82.64Q62.44,83.78,63.49,84.81Q64.54,85.84,65.88,86.84L64.94,88.16Q63.62,87.16,62.59,86.14Q61.56,85.12,60.74,83.98Q59.9,85.08,58.8,86.1Q57.7,87.12,56.26,88.18L55.26,86.94Q56.84,85.86,57.96,84.83Q59.08,83.8,59.9,82.7Q59.14,81.44,58.65,80.08Q58.16,78.72,57.86,77.22Q57.7,77.53999999999999,57.52,77.84Q57.34,78.14,57.14,78.44L56.26,77.28Q56.7,76.56,57.14,75.65Q57.58,74.74,57.96,73.76Q58.34,72.78,58.64,71.8Q58.94,70.82,59.1,69.94L60.52,70.14Q60.16,71.8,59.62,73.26L65.48,73.26L65.48,74.64L63.92,74.64Q63.64,77.18,63.1,79.11Q62.56,81.03999999999999,61.64,82.64ZM56.9,74.34L48.1,74.34L48.1,72.9L52.08,72.9Q51.98,72.58,51.85,72.19Q51.72,71.8,51.6,71.43Q51.48,71.06,51.37,70.75Q51.26,70.44,51.18,70.24L52.6,69.96Q52.68,70.18,52.82,70.55Q52.96,70.92,53.1,71.34Q53.24,71.76,53.38,72.18Q53.52,72.6,53.62,72.9L56.9,72.9L56.9,74.34ZM58.84,75.22Q59.08,76.98,59.55,78.47Q60.02,79.96000000000001,60.78,81.3Q61.5,79.9,61.91,78.28999999999999Q62.32,76.68,62.56,74.64L59.1,74.64Q59.04,74.8,58.98,74.94Q58.92,75.08,58.84,75.22ZM52,75.66Q51.32,76.94,50.45,78.19Q49.58,79.44,48.68,80.46000000000001L47.68,79.6Q48.52,78.66,49.36,77.42Q50.2,76.18,50.82,74.98L52,75.66ZM56.12,80.16Q55.86,79.68,55.46,79.06Q55.06,78.44,54.62,77.82Q54.18,77.2,53.75,76.65Q53.32,76.1,53,75.76L54.06,74.98Q54.38,75.32,54.79,75.86Q55.2,76.4,55.63,77Q56.06,77.6,56.46,78.18Q56.86,78.76,57.14,79.2L56.12,80.16ZM55.04,86.58L52.9,83.88Q52.04,85.08,50.94,86.12Q49.84,87.16,48.44,88.18L47.54,86.98Q48.98,86,50.07,84.98Q51.16,83.96000000000001,52,82.78Q51.36,82.02,50.77,81.33Q50.18,80.64,49.68,80.12L50.7,79.2Q51.2,79.72,51.72,80.31Q52.24,80.9,52.78,81.53999999999999Q53.52,80.18,53.96,78.66L55.18,79.2Q54.62,81.03999999999999,53.7,82.64Q54.36,83.42,54.96,84.17Q55.56,84.92,56.04,85.52L55.04,86.58ZM82.08,71.52L83.62,71.52L78.24,86.6L76.7,86.6L82.08,71.52ZM98.62,74.78Q98.34,74.28,98.02,73.77Q97.7,73.26,97.36,72.78Q97.02,72.3,96.69,71.87Q96.36,71.44,96.08,71.1L97.24,70.28Q97.5,70.6,97.85,71.04Q98.2,71.48,98.55,71.97Q98.9,72.46,99.22,72.93Q99.54,73.4,99.76,73.78L98.62,74.78ZM112.68,81.4L106.98,81.4L106.98,87.98L105.48,87.98L105.48,81.4L99.88,81.4L99.88,79.96000000000001L105.48,79.96000000000001L105.48,72.54L101,72.54L101,71.1L111.62,71.1L111.62,72.54L106.98,72.54L106.98,79.96000000000001L112.68,79.96000000000001L112.68,81.4ZM108.14,78.14Q108.78,77.14,109.38,75.95Q109.98,74.76,110.32,73.7L111.56,74.2Q111.4,74.64,111.16,75.2Q110.92,75.76,110.63,76.36Q110.34,76.96000000000001,110.02,77.56Q109.7,78.16,109.38,78.7L108.14,78.14ZM102.22,73.8Q102.42,74.16,102.71,74.71000000000001Q103,75.26,103.3,75.87Q103.6,76.48,103.88,77.08Q104.16,77.68,104.36,78.14L103.14,78.82Q102.96,78.34,102.69,77.72Q102.42,77.1,102.13,76.47Q101.84,75.84,101.54,75.28Q101.24,74.72,101,74.34L102.22,73.8ZM100.72,82.8L101.4,84.12Q101.2,84.28,100.77,84.63Q100.34,84.98,99.87,85.36Q99.4,85.74,98.99,86.07Q98.58,86.4,98.4,86.53999999999999Q98.2,86.7,97.95,86.94Q97.7,87.18,97.5,87.4L96.54,86.26Q97.08,85.78,97.08,85.03999999999999L97.08,77.64L94.66,77.64L94.66,76.16L98.56,76.16L98.56,84.66L100.72,82.8ZM128.96,71.52L130.5,71.52L125.12,86.6L123.58,86.6L128.96,71.52ZM152.78,69.84Q153.28,71.18,153.93,72.3Q154.58,73.42,155.42,74.38Q156.26,75.34,157.31,76.19Q158.36,77.03999999999999,159.7,77.84L158.78,79.22Q157.42,78.38,156.36,77.53Q155.3,76.68,154.45,75.66Q153.6,74.64,152.87,73.36Q152.14,72.08,151.44,70.4L152.78,69.84ZM149.4,70.74Q148.82,72.02,148.14,73.12Q147.46,74.22,146.62,75.22Q145.78,76.22,144.74,77.15Q143.7,78.08,142.4,79.03999999999999L141.32,77.78Q143.74,76.3,145.37,74.37Q147,72.44,147.96,70.18L149.4,70.74ZM144.86,77.58L155.74,77.58Q155.72,77.96000000000001,155.68,78.55Q155.64,79.14,155.6,79.84Q155.56,80.53999999999999,155.51,81.3Q155.46,82.06,155.4,82.76Q155.34,83.46000000000001,155.29,84.06Q155.24,84.66,155.2,85.03999999999999Q155.12,85.74,154.99,86.16Q154.86,86.58,154.6,86.82Q154.34,87.06,153.92,87.17Q153.5,87.28,152.84,87.34Q152.5,87.38,152.23,87.4Q151.96,87.42,151.74,87.44Q151.5,87.46000000000001,151.3,87.46000000000001L150.72,85.96000000000001L152.28,85.86Q152.68,85.84,152.93,85.76Q153.18,85.68,153.32,85.52Q153.46,85.36,153.53,85.09Q153.6,84.82,153.66,84.42Q153.72,84,153.78,83.21000000000001Q153.84,82.42,153.9,81.6Q153.96,80.78,154,80.06Q154.04,79.34,154.06,79.06L148.74,79.06Q148.72,79.32,148.7,79.65Q148.68,79.98,148.64,80.34Q148.5,81.64,148.22,82.68Q147.94,83.72,147.33,84.64Q146.72,85.56,145.68,86.41Q144.64,87.26,143,88.18L142,86.96000000000001Q143.54,86.16,144.47,85.46000000000001Q145.4,84.76,145.93,84.01Q146.46,83.26,146.7,82.38Q146.94,81.5,147.12,80.32Q147.18,79.96000000000001,147.2,79.63Q147.22,79.3,147.24,79.06L144.86,79.06L144.86,77.58ZM175.84,71.52L177.38,71.52L172,86.6L170.46,86.6L175.84,71.52ZM196.34,83.62Q195.84,83.72,195.19,83.82Q194.54,83.92,193.8,84.02L193.8,88L192.38,88L192.38,84.24Q191.28,84.4,190.24,84.53Q189.2,84.66,188.46,84.76L188.22,83.28Q189.04,83.2,190.14,83.07Q191.24,82.94,192.38,82.78L192.38,79.84L189.14,79.84L189.14,78.42Q189.48,77.58,189.87,76.4Q190.26,75.22,190.64,73.96000000000001L188.72,73.96000000000001L188.72,72.52L191.04,72.52Q191.24,71.8,191.41,71.12Q191.58,70.44,191.72,69.84L193.06,70.12Q192.94,70.68,192.79,71.28Q192.64,71.88,192.46,72.52L196.12,72.52L196.12,73.96000000000001L192.08,73.96000000000001Q191.72,75.22,191.35,76.39Q190.98,77.56,190.64,78.42L192.38,78.42L192.38,74.88L193.8,74.96000000000001L193.8,78.42L195.78,78.42L195.78,79.84L193.8,79.84L193.8,82.58Q194.5,82.48,195.11,82.39Q195.72,82.3,196.2,82.22L196.34,83.62ZM195.92,78.02Q198.06,76.94,199.7,75.62Q201.34,74.3,202.48,72.7L196.66,72.7L196.66,71.26L204.42,71.26L204.42,72.62Q203.9,73.38,203.33,74.08Q202.76,74.78,202.12,75.42Q202.68,75.72,203.3,76.08Q203.92,76.44,204.5,76.78999999999999Q205.08,77.14,205.6,77.48Q206.12,77.82,206.48,78.1L205.86,79.46000000000001Q205.48,79.16,204.92,78.76Q204.36,78.36,203.71,77.94Q203.06,77.52,202.37,77.12Q201.68,76.72,201.06,76.4Q200.12,77.2,199.05,77.93Q197.98,78.66,196.72,79.34L195.92,78.02ZM201.54,85.64L206.16,85.64L206.16,87.08L195.46,87.08L195.46,85.64L200.04,85.64L200.04,81.7L196.58,81.7L196.58,80.24L205.04,80.24L205.04,81.7L201.54,81.7L201.54,85.64ZM222.72,71.52L224.26,71.52L218.88,86.6L217.34,86.6L222.72,71.52ZM241.6,81.22Q241.46,80.94,241.24,80.6Q241.02,80.26,240.76,79.91Q240.5,79.56,240.23,79.22Q239.96,78.88,239.72,78.58L239.72,87.92L238.34,87.92L238.34,78.26Q237.82,79.53999999999999,237.23,80.72Q236.64,81.9,235.94,82.92L234.8,82Q235.26,81.32,235.75,80.49Q236.24,79.66,236.7,78.77Q237.16,77.88,237.56,76.95Q237.96,76.02,238.24,75.14L235.64,75.14L235.64,73.7L238.34,73.7L238.34,69.8L239.72,69.84L239.72,73.7L241.92,73.7L241.92,75.14L239.72,75.14L239.72,77.58L240.14,77.16Q240.4,77.4,240.75,77.77Q241.1,78.14,241.45,78.55Q241.8,78.96000000000001,242.11,79.37Q242.42,79.78,242.6,80.08L241.6,81.22ZM252.26,79.66Q251.42,78.58,250.72,77.53999999999999Q250.02,76.5,249.45,75.38Q248.88,74.26,248.43,72.99Q247.98,71.72,247.62,70.2L248.92,69.86Q249.6,72.68,250.76,74.77Q251.92,76.86,253.56,78.64L252.26,79.66ZM241.58,77.88Q242.8,76.3,243.65,74.51Q244.5,72.72,245.08,70.62L246.44,70.92Q245.76,73.22,244.85,75.22Q243.94,77.22,242.74,78.84L241.58,77.88ZM249.24,80.66Q249.6,81.26,250,82.01Q250.4,82.76,250.8,83.61Q251.2,84.46000000000001,251.6,85.36Q252,86.26,252.34,87.16L250.98,87.98Q250.68,87.08,250.32,86.18Q249.98,86.2,249.41,86.26Q248.84,86.32,248.17,86.38Q247.5,86.44,246.79,86.5Q246.08,86.56,245.47,86.62Q244.86,86.68,244.41,86.72Q243.96,86.76,243.82,86.76Q243.46,86.8,243.07,86.86Q242.68,86.92,242.32,87.02L241.92,85.56Q242.32,85.36,242.49,85.21000000000001Q242.66,85.06,242.8,84.8Q243.22,84.08,243.67,83.16Q244.12,82.24,244.55,81.21000000000001Q244.98,80.18,245.39,79.07Q245.8,77.96000000000001,246.16,76.88L247.52,77.3Q247.18,78.42,246.77,79.53Q246.36,80.64,245.92,81.67Q245.48,82.7,245.04,83.62Q244.6,84.53999999999999,244.2,85.26Q244.5,85.24,245.21,85.19Q245.92,85.14,246.75,85.06Q247.58,84.98,248.39,84.91Q249.2,84.84,249.74,84.78Q249.28,83.7,248.83,82.78Q248.38,81.86,247.98,81.16L249.24,80.66ZM269.6,71.52L271.14,71.52L265.76,86.6L264.22,86.6L269.6,71.52ZM292.72,77.1Q292.14,77.56,291.52,78.02Q290.9,78.48,290.22,78.92L298.46,78.92L298.46,80.2L288.86,80.2L288.52,81.92L296.74,81.92Q296.74,82,296.7,82.27Q296.66,82.53999999999999,296.61,82.9Q296.56,83.26,296.51,83.67Q296.46,84.08,296.41,84.44Q296.36,84.8,296.32,85.07Q296.28,85.34,296.26,85.42Q296.14,86.06,295.97,86.47Q295.8,86.88,295.46,87.15Q295.12,87.42,294.56,87.55Q294,87.68,293.12,87.74L290.8,87.9L290.34,86.5L292.96,86.34Q293.44,86.32,293.75,86.27Q294.06,86.22,294.25,86.1Q294.44,85.98,294.54,85.75Q294.64,85.52,294.72,85.12Q294.76,84.96000000000001,294.81,84.69Q294.86,84.42,294.91,84.13Q294.96,83.84,295,83.59Q295.04,83.34,295.06,83.2L286.78,83.2L287.18,80.74Q284.98,81.96000000000001,282.48,83.02L281.76,81.53999999999999Q286.76,79.64,290.32,77.1L282.44,77.1L282.44,75.78L288.74,75.78L288.74,73.48L284.32,73.48L284.32,72.2L288.74,72.2L288.74,69.98L290.36,70.04L290.36,72.2L294.38,72.2L294.38,73.48L290.36,73.48L290.36,75.78L292.06,75.78Q293.52,74.58,294.7,73.26Q295.88,71.94,296.84,70.5L298.04,71.34Q297.26,72.54,296.32,73.63Q295.38,74.72,294.24,75.78L299.86,75.78L299.86,77.1L292.72,77.1ZM316.48,71.52L318.02,71.52L312.64,86.6L311.1,86.6L316.48,71.52ZM346.98,83.74Q346.82,84.44,346.64,85.11Q346.46,85.78,346.18,86.42Q345.9,87.06,345.48,87.36Q345.06,87.66,344.52,87.66Q344,87.66,343.47,87.28Q342.94,86.9,342.48,85.88Q342.18,85.22,341.92,84.28999999999999Q341.66,83.36,341.45,82.07Q341.24,80.78,341.09,79.08Q340.94,77.38,340.86,75.18L334.42,75.18L334.42,73.72L340.82,73.72Q340.8,73.24,340.79,72.7Q340.78,72.16,340.76,71.64Q340.74,71.12,340.73,70.65Q340.72,70.18,340.72,69.82L342.14,69.9Q342.16,70.68,342.18,71.63Q342.2,72.58,342.24,73.72L346.68,73.72L346.68,75.18L342.3,75.18Q342.38,77.22,342.51,78.78Q342.64,80.34,342.8,81.51Q342.96,82.68,343.18,83.52Q343.4,84.36,343.68,84.96000000000001Q343.96,85.52,344.14,85.75Q344.32,85.98,344.54,85.98Q344.88,85.98,345.08,85.68Q345.28,85.38,345.4,84.92Q345.64,83.98,345.74,83.03999999999999L346.98,83.74ZM345.1,73.5Q344.9,73.22,344.6,72.88Q344.3,72.54,343.97,72.21Q343.64,71.88,343.33,71.59Q343.02,71.3,342.78,71.12L343.62,70.18Q343.86,70.34,344.18,70.63Q344.5,70.92,344.84,71.23Q345.18,71.54,345.48,71.86Q345.78,72.18,345.98,72.4L345.1,73.5ZM332.84,74.86Q332.62,74.46000000000001,332.27,73.95Q331.92,73.44,331.52,72.93Q331.12,72.42,330.73,71.96Q330.34,71.5,330.06,71.22L331.16,70.32Q331.46,70.6,331.85,71.04Q332.24,71.48,332.63,71.96Q333.02,72.44,333.38,72.92Q333.74,73.4,333.96,73.74L332.84,74.86ZM335.12,83.48Q335,83.6,334.65,84Q334.3,84.4,333.88,84.85Q333.46,85.3,333.08,85.71000000000001Q332.7,86.12,332.52,86.3Q332.34,86.46000000000001,332.09,86.75Q331.84,87.03999999999999,331.64,87.3L330.7,86.24Q330.98,85.9,331.13,85.56Q331.28,85.22,331.28,84.74L331.28,77.72L328.78,77.72L328.78,76.22L332.7,76.22L332.7,84.22Q332.86,84.03999999999999,333.07,83.8Q333.28,83.56,333.51,83.3Q333.74,83.03999999999999,333.96,82.78999999999999Q334.18,82.53999999999999,334.36,82.32L335.12,83.48ZM341.06,84.32L341.12,85.12Q340.48,85.28,339.59,85.48Q338.7,85.68,337.75,85.86Q336.8,86.03999999999999,335.9,86.19Q335,86.34,334.38,86.42L334.22,84.96000000000001Q334.74,84.9,335.41,84.8Q336.08,84.7,336.82,84.56L336.82,79.28L334.5,79.28L334.5,77.88L340.48,77.88L340.48,79.28L338.24,79.28L338.24,84.28Q339.04,84.12,339.76,83.96000000000001Q340.48,83.8,341.02,83.64L341.06,84.32Z" fill="#767676" fill-opacity="1"/></g></g></svg>